# Blender 4.0.2
# www.blender.org
mtllib level1.mtl
o box1
v 3.914709 0.029995 -30.395407
v 3.914709 12.171535 -30.395407
v 3.914709 0.029993 -44.929024
v 3.914709 12.171531 -44.929024
v 21.507910 0.029995 -30.395407
v 21.507910 12.171535 -30.395407
v 21.507910 0.029993 -44.929024
v 21.507910 12.171531 -44.929024
vn -1.0000 -0.0000 -0.0000
vn -0.0000 -0.0000 -1.0000
vn 1.0000 -0.0000 -0.0000
vn -0.0000 -0.0000 1.0000
vn -0.0000 -1.0000 -0.0000
vn -0.0000 1.0000 -0.0000
vt 0.375000 0.000000
vt 0.625000 0.000000
vt 0.625000 0.250000
vt 0.375000 0.250000
vt 0.625000 0.500000
vt 0.375000 0.500000
vt 0.625000 0.750000
vt 0.375000 0.750000
vt 0.625000 1.000000
vt 0.375000 1.000000
vt 0.125000 0.500000
vt 0.125000 0.750000
vt 0.875000 0.500000
vt 0.875000 0.750000
s 0
usemtl Material.003
f 1/1/1 2/2/1 4/3/1 3/4/1
f 3/4/2 4/3/2 8/5/2 7/6/2
f 7/6/3 8/5/3 6/7/3 5/8/3
f 5/8/4 6/7/4 2/9/4 1/10/4
f 3/11/5 7/6/5 5/8/5 1/12/5
f 8/5/6 4/13/6 2/14/6 6/7/6
o box1.001
v -12.183104 0.030003 24.156775
v -12.183104 12.171543 24.156775
v -12.183104 0.029997 -8.834539
v -12.183104 12.171537 -8.834541
v 6.113825 0.030003 24.156775
v 6.113825 12.171543 24.156775
v 6.113825 0.029997 -8.834539
v 6.113825 12.171537 -8.834541
vn -1.0000 -0.0000 -0.0000
vn -0.0000 -0.0000 -1.0000
vn 1.0000 -0.0000 -0.0000
vn -0.0000 -0.0000 1.0000
vn -0.0000 -1.0000 -0.0000
vn -0.0000 1.0000 -0.0000
vt 0.375000 0.000000
vt 0.625000 0.000000
vt 0.625000 0.250000
vt 0.375000 0.250000
vt 0.625000 0.500000
vt 0.375000 0.500000
vt 0.625000 0.750000
vt 0.375000 0.750000
vt 0.625000 1.000000
vt 0.375000 1.000000
vt 0.125000 0.500000
vt 0.125000 0.750000
vt 0.875000 0.500000
vt 0.875000 0.750000
s 0
usemtl Material.004
f 9/15/7 10/16/7 12/17/7 11/18/7
f 11/18/8 12/17/8 16/19/8 15/20/8
f 15/20/9 16/19/9 14/21/9 13/22/9
f 13/22/10 14/21/10 10/23/10 9/24/10
f 11/25/11 15/20/11 13/22/11 9/26/11
f 16/19/12 12/27/12 10/28/12 14/21/12
o building1_doorframe1
v -37.431568 20.355843 -28.589529
v -15.194607 20.355843 -28.589531
v -37.431568 28.106091 -28.589529
v -15.194607 28.106091 -28.589531
v -37.431568 20.355843 -30.384720
v -15.194607 20.355843 -30.384722
v -37.431568 28.106091 -30.384720
v -15.194607 28.106091 -30.384722
vn -0.0000 -0.0000 1.0000
vn -0.0000 1.0000 -0.0000
vn -0.0000 -0.0000 -1.0000
vn -0.0000 -1.0000 -0.0000
vn -1.0000 -0.0000 -0.0000
vn 1.0000 -0.0000 -0.0000
vt 0.375000 0.000000
vt 0.625000 0.000000
vt 0.625000 0.250000
vt 0.375000 0.250000
vt 0.625000 0.500000
vt 0.375000 0.500000
vt 0.625000 0.750000
vt 0.375000 0.750000
vt 0.625000 1.000000
vt 0.375000 1.000000
vt 0.125000 0.500000
vt 0.125000 0.750000
vt 0.875000 0.500000
vt 0.875000 0.750000
s 0
usemtl wall_diffuse.006
f 17/29/13 18/30/13 20/31/13 19/32/13
f 19/32/14 20/31/14 24/33/14 23/34/14
f 23/34/15 24/33/15 22/35/15 21/36/15
f 21/36/16 22/35/16 18/37/16 17/38/16
f 19/39/17 23/34/17 21/36/17 17/40/17
f 24/33/18 20/41/18 18/42/18 22/35/18
o building1_doorframe2
v 28.979389 20.355846 12.247437
v 28.979389 20.355850 34.484402
v 28.979389 28.106094 12.247437
v 28.979389 28.106098 34.484394
v 30.774578 20.355846 12.247437
v 30.774578 20.355850 34.484402
v 30.774578 28.106094 12.247437
v 30.774578 28.106098 34.484394
vn -1.0000 -0.0000 -0.0000
vn -0.0000 1.0000 -0.0000
vn 1.0000 -0.0000 -0.0000
vn -0.0000 -1.0000 -0.0000
vn -0.0000 -0.0000 -1.0000
vn -0.0000 -0.0000 1.0000
vt 0.375000 0.000000
vt 0.625000 0.000000
vt 0.625000 0.250000
vt 0.375000 0.250000
vt 0.625000 0.500000
vt 0.375000 0.500000
vt 0.625000 0.750000
vt 0.375000 0.750000
vt 0.625000 1.000000
vt 0.375000 1.000000
vt 0.125000 0.500000
vt 0.125000 0.750000
vt 0.875000 0.500000
vt 0.875000 0.750000
s 0
usemtl wall_diffuse.007
f 25/43/19 26/44/19 28/45/19 27/46/19
f 27/46/20 28/45/20 32/47/20 31/48/20
f 31/48/21 32/47/21 30/49/21 29/50/21
f 29/50/22 30/49/22 26/51/22 25/52/22
f 27/53/23 31/48/23 29/50/23 25/54/23
f 32/47/24 28/55/24 26/56/24 30/49/24
o building1_wall1
v -15.815200 -0.232498 -28.589525
v 29.902748 -0.232498 -28.589527
v -15.815200 28.138947 -28.589529
v 29.902748 28.138947 -28.589531
v -15.815200 -0.232498 -30.384716
v 29.902748 -0.232498 -30.384718
v -15.815200 28.138947 -30.384720
v 29.902748 28.138947 -30.384722
vn -0.0000 -0.0000 1.0000
vn -0.0000 1.0000 -0.0000
vn -0.0000 -0.0000 -1.0000
vn -0.0000 -1.0000 -0.0000
vn -1.0000 -0.0000 -0.0000
vn 1.0000 -0.0000 -0.0000
vt -0.279790 -2.170274
vt 1.330675 -2.170274
vt 1.330675 -1.098637
vt -0.279790 -1.098637
vt 1.330675 -0.027000
vt -0.279790 -0.027000
vt 1.330675 1.044638
vt -0.279790 1.044638
vt 1.330675 2.116275
vt -0.279790 2.116275
vt -1.890255 -0.027000
vt -1.890255 1.044638
vt 2.941141 -0.027000
vt 2.941141 1.044638
s 0
usemtl wall_diffuse
f 33/57/25 34/58/25 36/59/25 35/60/25
f 35/60/26 36/59/26 40/61/26 39/62/26
f 39/62/27 40/61/27 38/63/27 37/64/27
f 37/64/28 38/63/28 34/65/28 33/66/28
f 35/67/29 39/62/29 37/64/29 33/68/29
f 40/61/30 36/69/30 34/70/30 38/63/30
o building1_wall2
v 28.997595 -0.232490 31.811207
v 28.997595 -0.232486 49.616329
v 28.997595 28.138954 31.811203
v 28.997595 28.138958 49.616322
v 30.792784 -0.232490 31.811207
v 30.792784 -0.232486 49.616329
v 30.792784 28.138954 31.811203
v 30.792784 28.138958 49.616322
vn -1.0000 -0.0000 -0.0000
vn -0.0000 1.0000 -0.0000
vn 1.0000 -0.0000 -0.0000
vn -0.0000 -1.0000 -0.0000
vn -0.0000 -0.0000 -1.0000
vn -0.0000 -0.0000 1.0000
vt 1.544847 0.000000
vt 2.964695 0.000000
vt 2.964695 1.071666
vt 1.544847 1.071666
vt 2.964695 2.143333
vt 1.544847 2.143333
vt 2.964695 3.214999
vt 1.544847 3.214999
vt 2.964695 4.286665
vt 1.544847 4.286665
vt 0.125000 2.143333
vt 0.125000 3.214999
vt 4.384542 2.143333
vt 4.384542 3.214999
s 0
usemtl wall_diffuse.002
f 41/71/31 42/72/31 44/73/31 43/74/31
f 43/74/32 44/73/32 48/75/32 47/76/32
f 47/76/33 48/75/33 46/77/33 45/78/33
f 45/78/34 46/77/34 42/79/34 41/80/34
f 43/81/35 47/76/35 45/78/35 41/82/35
f 48/75/36 44/83/36 42/84/36 46/77/36
o building1_wall3
v 28.997595 -0.232498 -30.551706
v 28.997595 -0.232492 13.688963
v 28.997595 28.138947 -30.551710
v 28.997595 28.138954 13.688959
v 30.792784 -0.232498 -30.551706
v 30.792784 -0.232492 13.688963
v 30.792784 28.138947 -30.551710
v 30.792784 28.138954 13.688959
vn -1.0000 -0.0000 -0.0000
vn -0.0000 1.0000 -0.0000
vn 1.0000 -0.0000 -0.0000
vn -0.0000 -1.0000 -0.0000
vn -0.0000 -0.0000 -1.0000
vn -0.0000 -0.0000 1.0000
vt 1.389084 -4.329545
vt 2.653169 -4.329545
vt 2.653169 -2.997159
vt 1.389084 -2.997159
vt 2.653169 -1.664773
vt 1.389084 -1.664773
vt 2.653169 -0.332386
vt 1.389084 -0.332386
vt 2.653169 1.000000
vt 1.389084 1.000000
vt 0.125000 -1.664773
vt 0.125000 -0.332386
vt 3.917253 -1.664773
vt 3.917253 -0.332386
s 0
usemtl wall_diffuse.003
f 49/85/37 50/86/37 52/87/37 51/88/37
f 51/88/38 52/87/38 56/89/38 55/90/38
f 55/90/39 56/89/39 54/91/39 53/92/39
f 53/92/40 54/91/40 50/93/40 49/94/40
f 51/95/41 55/90/41 53/92/41 49/96/41
f 56/89/42 52/97/42 50/98/42 54/91/42
o building1_wall4
v -38.436466 -0.232486 49.754131
v 30.062702 -0.232486 49.754128
v -38.436466 28.138958 49.754124
v 30.062702 28.138958 49.754120
v -38.436466 -0.232486 47.958939
v 30.062702 -0.232486 47.958935
v -38.436466 28.138958 47.958931
v 30.062702 28.138958 47.958927
vn -0.0000 -0.0000 1.0000
vn -0.0000 1.0000 -0.0000
vn -0.0000 -0.0000 -1.0000
vn -0.0000 -1.0000 -0.0000
vn -1.0000 -0.0000 -0.0000
vn 1.0000 -0.0000 -0.0000
vt 1.630814 0.000000
vt 3.136628 0.000000
vt 3.136628 1.027108
vt 1.630814 1.027108
vt 3.136628 2.054217
vt 1.630814 2.054217
vt 3.136628 3.081325
vt 1.630814 3.081325
vt 3.136628 4.108434
vt 1.630814 4.108434
vt 0.125000 2.054217
vt 0.125000 3.081325
vt 4.642442 2.054217
vt 4.642442 3.081325
s 0
usemtl wall_diffuse.004
f 57/99/43 58/100/43 60/101/43 59/102/43
f 59/102/44 60/101/44 64/103/44 63/104/44
f 63/104/45 64/103/45 62/105/45 61/106/45
f 61/106/46 62/105/46 58/107/46 57/108/46
f 59/109/47 63/104/47 61/106/47 57/110/47
f 64/103/48 60/111/48 58/112/48 62/105/48
o building1_wall5
v -38.426044 -0.232498 -30.626415
v -38.426044 -0.232486 48.291477
v -38.426044 28.138947 -30.626419
v -38.426044 28.138958 48.291470
v -36.630856 -0.232498 -30.626415
v -36.630856 -0.232486 48.291477
v -36.630856 28.138947 -30.626419
v -36.630856 28.138958 48.291470
vn -1.0000 -0.0000 -0.0000
vn -0.0000 1.0000 -0.0000
vn 1.0000 -0.0000 -0.0000
vn -0.0000 -1.0000 -0.0000
vn -0.0000 -0.0000 -1.0000
vn -0.0000 -0.0000 1.0000
vt 1.616803 0.000000
vt 3.108607 0.000000
vt 3.108607 1.325444
vt 1.616803 1.325444
vt 3.108607 2.650887
vt 1.616803 2.650887
vt 3.108607 3.976331
vt 1.616803 3.976331
vt 3.108607 5.301775
vt 1.616803 5.301775
vt 0.125000 2.650887
vt 0.125000 3.976331
vt 4.600410 2.650887
vt 4.600410 3.976331
s 0
usemtl wall_diffuse.005
f 65/113/49 66/114/49 68/115/49 67/116/49
f 67/116/50 68/115/50 72/117/50 71/118/50
f 71/118/51 72/117/51 70/119/51 69/120/51
f 69/120/52 70/119/52 66/121/52 65/122/52
f 67/123/53 71/118/53 69/120/53 65/124/53
f 72/117/54 68/125/54 66/126/54 70/119/54
o Floor
v 104.099998 0.029988 -85.709167
v 104.099998 -0.030012 -85.709167
v 104.099998 0.030012 85.530838
v 104.099998 -0.029988 85.530838
v -104.099998 0.029988 -85.709167
v -104.099998 -0.030012 -85.709167
v -104.099998 0.030012 85.530838
v -104.099998 -0.029988 85.530838
vn -0.0000 1.0000 -0.0000
vn -0.0000 -0.0000 1.0000
vn -1.0000 -0.0000 -0.0000
vn -0.0000 -1.0000 -0.0000
vn 1.0000 -0.0000 -0.0000
vn -0.0000 -0.0000 -1.0000
vt 2.581569 -1.367694
vt 6.627407 -1.398508
vt 6.596043 2.576304
vt 2.581569 2.576304
vt -1.432905 2.576304
vt 2.581569 6.520303
vt -1.432905 6.520303
vt -1.432905 -9.255692
vt 2.581569 -9.255692
vt 2.581569 -5.311695
vt -1.432905 -5.311695
vt -5.447380 -1.367694
vt -1.432905 -1.367694
vt -5.447380 2.576304
s 0
usemtl Material.001
f 73/127/55 77/128/55 79/129/55 75/130/55
f 76/131/56 75/130/56 79/132/56 80/133/56
f 80/134/57 79/135/57 77/136/57 78/137/57
f 78/138/58 74/139/58 76/131/58 80/140/58
f 74/139/59 73/127/59 75/130/59 76/131/59
f 78/137/60 77/136/60 73/127/60 74/139/60
o Navmesh
v 41.771500 0.692095 -39.266891
v 14.170382 0.692095 -57.626541
v -25.006577 0.692095 -36.644714
v -22.556747 0.692095 -17.103012
v -18.261135 0.692095 34.655701
v 7.241146 0.692095 35.012039
v 20.449762 0.692095 21.832428
v 39.119263 0.692095 21.540421
v 41.524944 0.692095 59.280571
v -48.724571 0.692095 59.582901
v -48.811432 0.692095 -40.350937
v 13.473024 0.692095 -12.201921
l 81 82
l 83 82
l 84 83
l 85 84
l 86 85
l 87 86
l 88 87
l 89 88
l 90 89
l 91 90
l 84 92
l 83 91
l 87 92
l 81 88
